<svg width="375" height="600" viewBox="0 0 375 600" fill="none" xmlns="http://www.w3.org/2000/svg">
<path fill-rule="evenodd" clip-rule="evenodd" d="M434.923 75.8918L130.806 -46.9791L7.93543 257.137L219.333 342.547C270.54 363.236 328.823 338.497 349.512 287.29L434.923 75.8918ZM15.9936 676.573C-67.9858 642.643 -108.559 547.058 -74.6291 463.079C-40.6992 379.1 54.8851 338.526 138.865 372.456C222.844 406.386 263.417 501.971 229.487 585.95C195.557 669.929 99.973 710.503 15.9936 676.573ZM788.923 219.892L484.806 97.0209L399.396 308.419C378.707 359.626 403.447 417.909 454.654 438.598L666.052 524.008L788.923 219.892ZM216.935 759.137L521.052 882.008L643.923 577.892L432.525 492.482C381.318 471.793 323.035 496.532 302.346 547.739L216.935 759.137Z" fill="url(#paint0_linear)"/>
<defs>
<linearGradient id="paint0_linear" x1="-332.372" y1="151.544" x2="64.6644" y2="1077.88" gradientUnits="userSpaceOnUse">
<stop stop-color="#FF8F71"/>
<stop offset="1" stop-color="#FF3E55"/>
</linearGradient>
</defs>
</svg>
