<svg width="1283" height="600" viewBox="0 0 1283 600" fill="none" xmlns="http://www.w3.org/2000/svg">
<path id="Combined Shape" fill-rule="evenodd" clip-rule="evenodd" d="M1251.97 -575.148L522.488 -869.876L227.144 -138.874L863.903 118.393C915.11 139.082 973.393 114.342 994.082 63.1352L1251.97 -575.148ZM245.926 867.888C44.487 786.502 -52.5269 556.463 28.8599 355.024C110.247 153.584 339.831 55.5 541.27 136.887C742.71 218.274 839.724 448.312 758.337 649.752C676.95 851.191 447.366 949.275 245.926 867.888ZM2103.34 -231.172L1373.86 -525.899L1115.98 112.384C1095.29 163.591 1120.03 221.874 1171.23 242.563L1807.99 499.83L2103.34 -231.172ZM731.035 1065.15L1460.51 1359.88L1755.86 628.874L1119.1 371.607C1067.89 350.918 1009.61 375.658 988.918 426.865L731.035 1065.15Z" fill="url(#paint0_linear)"/>
<defs>
<linearGradient id="paint0_linear" x1="-589.348" y1="-393.704" x2="362.975" y2="1829.92" gradientUnits="userSpaceOnUse">
<stop stop-color="#FF8F71"/>
<stop offset="1" stop-color="#FF3E55"/>
</linearGradient>
</defs>
</svg>
